<svg width="421" height="76" viewBox="0 0 421 76" fill="none" xmlns="http://www.w3.org/2000/svg">
<path d="M9.78977 74H0.556818L27.2614 1.27273H36.3523L63.0568 74H53.8239L32.0909 12.7784H31.5227L9.78977 74ZM13.1989 45.5909H50.4148V53.4034H13.1989V45.5909ZM94.3849 74V1.27273H119.811C124.877 1.27273 129.056 2.14867 132.347 3.90057C135.637 5.62879 138.088 7.9607 139.697 10.8963C141.307 13.8082 142.112 17.0398 142.112 20.5909C142.112 23.7159 141.556 26.2964 140.443 28.3324C139.354 30.3684 137.91 31.9782 136.111 33.1619C134.335 34.3456 132.406 35.2216 130.322 35.7898V36.5C132.548 36.642 134.785 37.4233 137.034 38.8438C139.283 40.2642 141.165 42.3002 142.68 44.9517C144.196 47.6032 144.953 50.8466 144.953 54.6818C144.953 58.3277 144.125 61.6065 142.467 64.5185C140.81 67.4304 138.194 69.7386 134.619 71.4432C131.045 73.1477 126.393 74 120.663 74H94.3849ZM103.192 66.1875H120.663C126.416 66.1875 130.5 65.0748 132.915 62.8494C135.353 60.6004 136.572 57.8778 136.572 54.6818C136.572 52.2197 135.945 49.947 134.69 47.8636C133.436 45.7566 131.648 44.0758 129.328 42.821C127.008 41.5426 124.262 40.9034 121.089 40.9034H103.192V66.1875ZM103.192 33.233H119.527C122.179 33.233 124.57 32.7121 126.7 31.6705C128.855 30.6288 130.559 29.161 131.814 27.267C133.092 25.3731 133.732 23.1477 133.732 20.5909C133.732 17.3949 132.619 14.6842 130.393 12.4588C128.168 10.2098 124.641 9.08523 119.811 9.08523H103.192V33.233ZM240.788 37.6364C240.788 45.3068 239.403 51.9356 236.633 57.5227C233.863 63.1098 230.063 67.4186 225.234 70.4489C220.404 73.4792 214.888 74.9943 208.685 74.9943C202.483 74.9943 196.967 73.4792 192.137 70.4489C187.308 67.4186 183.508 63.1098 180.738 57.5227C177.968 51.9356 176.583 45.3068 176.583 37.6364C176.583 29.9659 177.968 23.3371 180.738 17.75C183.508 12.1629 187.308 7.85417 192.137 4.82386C196.967 1.79356 202.483 0.278406 208.685 0.278406C214.888 0.278406 220.404 1.79356 225.234 4.82386C230.063 7.85417 233.863 12.1629 236.633 17.75C239.403 23.3371 240.788 29.9659 240.788 37.6364ZM232.265 37.6364C232.265 31.339 231.211 26.0241 229.104 21.6918C227.021 17.3594 224.192 14.0805 220.617 11.8551C217.066 9.62973 213.089 8.51704 208.685 8.51704C204.282 8.51704 200.293 9.62973 196.718 11.8551C193.167 14.0805 190.338 17.3594 188.231 21.6918C186.147 26.0241 185.106 31.339 185.106 37.6364C185.106 43.9337 186.147 49.2486 188.231 53.581C190.338 57.9134 193.167 61.1922 196.718 63.4176C200.293 65.643 204.282 66.7557 208.685 66.7557C213.089 66.7557 217.066 65.643 220.617 63.4176C224.192 61.1922 227.021 57.9134 229.104 53.581C231.211 49.2486 232.265 43.9337 232.265 37.6364ZM323.323 1.27273H332.13V49.4261C332.13 54.3977 330.958 58.8366 328.614 62.7429C326.294 66.6255 323.015 69.6913 318.778 71.9403C314.54 74.1657 309.568 75.2784 303.863 75.2784C298.157 75.2784 293.186 74.1657 288.948 71.9403C284.71 69.6913 281.42 66.6255 279.076 62.7429C276.756 58.8366 275.596 54.3977 275.596 49.4261V1.27273H284.403V48.7159C284.403 52.267 285.184 55.4276 286.746 58.1974C288.309 60.9437 290.534 63.1098 293.423 64.696C296.335 66.2585 299.815 67.0398 303.863 67.0398C307.911 67.0398 311.391 66.2585 314.303 64.696C317.215 63.1098 319.441 60.9437 320.979 58.1974C322.542 55.4276 323.323 52.267 323.323 48.7159V1.27273ZM365.74 9.08523V1.27273H420.285V9.08523H397.416V74H388.609V9.08523H365.74Z" fill="#303030"/>
</svg>
