<svg width="398" height="76" viewBox="0 0 398 76" fill="none" xmlns="http://www.w3.org/2000/svg">
<path d="M61.8276 24H53.0208C52.4999 21.4669 51.5885 19.2415 50.2864 17.3239C49.008 15.4062 47.4455 13.7964 45.5989 12.4943C43.776 11.1686 41.7518 10.1742 39.5265 9.51136C37.3011 8.84848 34.981 8.51704 32.5662 8.51704C28.1628 8.51704 24.1737 9.62973 20.5989 11.8551C17.0478 14.0805 14.2187 17.3594 12.1117 21.6918C10.0284 26.0241 8.98668 31.339 8.98668 37.6364C8.98668 43.9337 10.0284 49.2486 12.1117 53.581C14.2187 57.9134 17.0478 61.1922 20.5989 63.4176C24.1737 65.643 28.1628 66.7557 32.5662 66.7557C34.981 66.7557 37.3011 66.4242 39.5265 65.7614C41.7518 65.0985 43.776 64.116 45.5989 62.8139C47.4455 61.4882 49.008 59.8665 50.2864 57.9489C51.5885 56.0076 52.4999 53.7822 53.0208 51.2727H61.8276C61.1647 54.9896 59.9573 58.3158 58.2054 61.2514C56.4535 64.187 54.2755 66.6847 51.6713 68.7443C49.0672 70.7803 46.1434 72.331 42.9 73.3963C39.6803 74.4616 36.2357 74.9943 32.5662 74.9943C26.3636 74.9943 20.8475 73.4792 16.0179 70.4489C11.1884 67.4186 7.38867 63.1098 4.61879 57.5227C1.8489 51.9356 0.463956 45.3068 0.463956 37.6364C0.463956 29.9659 1.8489 23.3371 4.61879 17.75C7.38867 12.1629 11.1884 7.85417 16.0179 4.82386C20.8475 1.79356 26.3636 0.278406 32.5662 0.278406C36.2357 0.278406 39.6803 0.811077 42.9 1.87642C46.1434 2.94176 49.0672 4.50426 51.6713 6.56392C54.2755 8.5999 56.4535 11.0857 58.2054 14.0213C59.9573 16.9332 61.1647 20.2595 61.8276 24ZM96.0588 74V1.27273H104.866V33.6591H143.644V1.27273H152.451V74H143.644V41.4716H104.866V74H96.0588ZM190.082 74V1.27273H233.974V9.08523H198.889V33.6591H231.702V41.4716H198.889V66.1875H234.542V74H190.082ZM269.848 74V1.27273H313.456V9.08523H278.655V33.6591H310.189V41.4716H278.655V74H269.848ZM388.312 19.4545C387.886 15.8561 386.158 13.0625 383.127 11.0739C380.097 9.08523 376.38 8.09091 371.977 8.09091C368.757 8.09091 365.94 8.61174 363.525 9.65341C361.134 10.6951 359.264 12.1274 357.914 13.9503C356.588 15.7732 355.926 17.8447 355.926 20.1648C355.926 22.1061 356.387 23.7751 357.311 25.1719C358.258 26.545 359.465 27.6932 360.933 28.6165C362.401 29.5161 363.939 30.2618 365.549 30.8537C367.159 31.4219 368.639 31.8835 369.988 32.2386L377.374 34.2273C379.268 34.7244 381.375 35.411 383.695 36.2869C386.039 37.1629 388.276 38.3584 390.407 39.8736C392.561 41.3651 394.337 43.2827 395.734 45.6264C397.131 47.9702 397.829 50.8466 397.829 54.2557C397.829 58.1856 396.799 61.7367 394.74 64.9091C392.704 68.0814 389.721 70.6027 385.791 72.473C381.884 74.3433 377.138 75.2784 371.551 75.2784C366.342 75.2784 361.832 74.438 358.021 72.7571C354.233 71.0762 351.25 68.7325 349.072 65.7259C346.918 62.7192 345.698 59.2273 345.414 55.25H354.505C354.742 57.9962 355.665 60.2689 357.275 62.0682C358.909 63.8437 360.968 65.1695 363.454 66.0455C365.963 66.8977 368.662 67.3239 371.551 67.3239C374.912 67.3239 377.931 66.7794 380.606 65.6903C383.281 64.5777 385.4 63.0388 386.963 61.0739C388.525 59.0852 389.306 56.7652 389.306 54.1136C389.306 51.6989 388.632 49.7339 387.282 48.2188C385.933 46.7036 384.157 45.4725 381.955 44.5256C379.754 43.5786 377.374 42.75 374.818 42.0398L365.869 39.483C360.187 37.8494 355.689 35.5175 352.374 32.4872C349.06 29.4569 347.403 25.4915 347.403 20.5909C347.403 16.5189 348.504 12.9678 350.705 9.9375C352.931 6.88352 355.914 4.5161 359.654 2.83523C363.419 1.13068 367.621 0.278406 372.261 0.278406C376.948 0.278406 381.115 1.11884 384.761 2.79971C388.407 4.45691 391.295 6.72964 393.426 9.61789C395.58 12.5062 396.716 15.785 396.835 19.4545H388.312Z" fill="#303030"/>
</svg>
