<svg width="446" height="76" viewBox="0 0 446 76" fill="none" xmlns="http://www.w3.org/2000/svg">
<path d="M23.25 74H0.806819V1.27273H24.2443C31.2992 1.27273 37.3362 2.72869 42.3551 5.64062C47.3741 8.52888 51.2211 12.6837 53.8963 18.1051C56.5715 23.5028 57.9091 29.9659 57.9091 37.4943C57.9091 45.0701 56.5597 51.5923 53.8608 57.0611C51.1619 62.5062 47.232 66.6965 42.071 69.6321C36.91 72.544 30.6364 74 23.25 74ZM9.61364 66.1875H22.6818C28.6951 66.1875 33.6785 65.0275 37.6321 62.7074C41.5857 60.3873 44.5331 57.0848 46.4744 52.7997C48.4157 48.5147 49.3864 43.4129 49.3864 37.4943C49.3864 31.6231 48.4276 26.5687 46.5099 22.331C44.5923 18.0696 41.7277 14.8026 37.9162 12.5298C34.1046 10.2334 29.358 9.08523 23.6761 9.08523H9.61364V66.1875ZM101.489 1.27273V74H92.6818V1.27273H101.489ZM178.919 19.4545C178.493 15.8561 176.765 13.0625 173.735 11.0739C170.704 9.08523 166.988 8.09091 162.584 8.09091C159.364 8.09091 156.547 8.61174 154.132 9.65341C151.741 10.6951 149.871 12.1274 148.522 13.9503C147.196 15.7732 146.533 17.8447 146.533 20.1648C146.533 22.1061 146.995 23.7751 147.918 25.1719C148.865 26.545 150.072 27.6932 151.54 28.6165C153.008 29.5161 154.547 30.2618 156.157 30.8537C157.766 31.4219 159.246 31.8835 160.596 32.2386L167.982 34.2273C169.876 34.7244 171.983 35.411 174.303 36.2869C176.647 37.1629 178.884 38.3584 181.015 39.8736C183.169 41.3651 184.944 43.2827 186.341 45.6264C187.738 47.9702 188.436 50.8466 188.436 54.2557C188.436 58.1856 187.407 61.7367 185.347 64.9091C183.311 68.0814 180.328 70.6027 176.398 72.473C172.492 74.3433 167.745 75.2784 162.158 75.2784C156.95 75.2784 152.44 74.438 148.628 72.7571C144.84 71.0762 141.857 68.7325 139.679 65.7259C137.525 62.7192 136.306 59.2273 136.022 55.25H145.113C145.349 57.9962 146.273 60.2689 147.882 62.0682C149.516 63.8437 151.576 65.1695 154.061 66.0455C156.571 66.8977 159.27 67.3239 162.158 67.3239C165.52 67.3239 168.538 66.7794 171.213 65.6903C173.889 64.5777 176.007 63.0388 177.57 61.0739C179.132 59.0852 179.914 56.7652 179.914 54.1136C179.914 51.6989 179.239 49.7339 177.89 48.2188C176.54 46.7036 174.765 45.4725 172.563 44.5256C170.361 43.5786 167.982 42.75 165.425 42.0398L156.476 39.483C150.794 37.8494 146.296 35.5175 142.982 32.4872C139.667 29.4569 138.01 25.4915 138.01 20.5909C138.01 16.5189 139.111 12.9678 141.313 9.9375C143.538 6.88352 146.521 4.5161 150.262 2.83523C154.026 1.13068 158.228 0.278406 162.868 0.278406C167.556 0.278406 171.722 1.11884 175.368 2.79971C179.014 4.45691 181.902 6.72964 184.033 9.61789C186.187 12.5062 187.324 15.785 187.442 19.4545H178.919ZM222.916 74V1.27273H231.723V33.6591H270.501V1.27273H279.308V74H270.501V41.4716H231.723V74H222.916ZM316.94 74V1.27273H360.832V9.08523H325.746V33.6591H358.559V41.4716H325.746V66.1875H361.4V74H316.94ZM436.478 19.4545C436.052 15.8561 434.324 13.0625 431.293 11.0739C428.263 9.08523 424.546 8.09091 420.143 8.09091C416.923 8.09091 414.106 8.61174 411.691 9.65341C409.3 10.6951 407.43 12.1274 406.08 13.9503C404.754 15.7732 404.092 17.8447 404.092 20.1648C404.092 22.1061 404.553 23.7751 405.477 25.1719C406.424 26.545 407.631 27.6932 409.099 28.6165C410.567 29.5161 412.105 30.2618 413.715 30.8537C415.325 31.4219 416.805 31.8835 418.154 32.2386L425.54 34.2273C427.434 34.7244 429.541 35.411 431.862 36.2869C434.205 37.1629 436.442 38.3584 438.573 39.8736C440.728 41.3651 442.503 43.2827 443.9 45.6264C445.297 47.9702 445.995 50.8466 445.995 54.2557C445.995 58.1856 444.965 61.7367 442.906 64.9091C440.87 68.0814 437.887 70.6027 433.957 72.473C430.05 74.3433 425.304 75.2784 419.717 75.2784C414.508 75.2784 409.998 74.438 406.187 72.7571C402.399 71.0762 399.416 68.7325 397.238 65.7259C395.084 62.7192 393.864 59.2273 393.58 55.25H402.671C402.908 57.9962 403.831 60.2689 405.441 62.0682C407.075 63.8437 409.134 65.1695 411.62 66.0455C414.129 66.8977 416.828 67.3239 419.717 67.3239C423.078 67.3239 426.097 66.7794 428.772 65.6903C431.447 64.5777 433.566 63.0388 435.129 61.0739C436.691 59.0852 437.472 56.7652 437.472 54.1136C437.472 51.6989 436.798 49.7339 435.448 48.2188C434.099 46.7036 432.323 45.4725 430.121 44.5256C427.92 43.5786 425.54 42.75 422.984 42.0398L414.035 39.483C408.353 37.8494 403.855 35.5175 400.54 32.4872C397.226 29.4569 395.569 25.4915 395.569 20.5909C395.569 16.5189 396.67 12.9678 398.871 9.9375C401.097 6.88352 404.08 4.5161 407.82 2.83523C411.585 1.13068 415.787 0.278406 420.427 0.278406C425.114 0.278406 429.281 1.11884 432.927 2.79971C436.573 4.45691 439.461 6.72964 441.592 9.61789C443.746 12.5062 444.882 15.785 445.001 19.4545H436.478Z" fill="#303030"/>
</svg>
