<svg width="353" height="75" viewBox="0 0 353 75" fill="none" xmlns="http://www.w3.org/2000/svg">
<path d="M20.0795 74L0.193182 1.27273H9.14205L24.3409 60.5057H25.0511L40.5341 1.27273H50.4773L65.9602 60.5057H66.6705L81.8693 1.27273H90.8182L70.9318 74H61.8409L45.7898 16.0455H45.2216L29.1705 74H20.0795ZM179.737 37.6364C179.737 45.3068 178.352 51.9356 175.582 57.5227C172.812 63.1098 169.012 67.4186 164.183 70.4489C159.353 73.4792 153.837 74.9943 147.635 74.9943C141.432 74.9943 135.916 73.4792 131.086 70.4489C126.257 67.4186 122.457 63.1098 119.687 57.5227C116.917 51.9356 115.532 45.3068 115.532 37.6364C115.532 29.9659 116.917 23.3371 119.687 17.75C122.457 12.1629 126.257 7.85417 131.086 4.82386C135.916 1.79356 141.432 0.278406 147.635 0.278406C153.837 0.278406 159.353 1.79356 164.183 4.82386C169.012 7.85417 172.812 12.1629 175.582 17.75C178.352 23.3371 179.737 29.9659 179.737 37.6364ZM171.214 37.6364C171.214 31.339 170.161 26.0241 168.054 21.6918C165.97 17.3594 163.141 14.0805 159.566 11.8551C156.015 9.62973 152.038 8.51704 147.635 8.51704C143.231 8.51704 139.242 9.62973 135.667 11.8551C132.116 14.0805 129.287 17.3594 127.18 21.6918C125.097 26.0241 124.055 31.339 124.055 37.6364C124.055 43.9337 125.097 49.2486 127.18 53.581C129.287 57.9134 132.116 61.1922 135.667 63.4176C139.242 65.643 143.231 66.7557 147.635 66.7557C152.038 66.7557 156.015 65.643 159.566 63.4176C163.141 61.1922 165.97 57.9134 168.054 53.581C170.161 49.2486 171.214 43.9337 171.214 37.6364ZM214.545 74V1.27273H239.119C244.801 1.27273 249.465 2.24337 253.11 4.18466C256.756 6.10227 259.455 8.74195 261.207 12.1037C262.959 15.4654 263.835 19.2888 263.835 23.5739C263.835 27.8589 262.959 31.6586 261.207 34.973C259.455 38.2874 256.768 40.8916 253.146 42.7855C249.524 44.6558 244.895 45.5909 239.261 45.5909H219.375V37.6364H238.977C242.859 37.6364 245.984 37.0682 248.352 35.9318C250.743 34.7955 252.471 33.1856 253.537 31.1023C254.626 28.9953 255.17 26.4858 255.17 23.5739C255.17 20.6619 254.626 18.1169 253.537 15.9389C252.448 13.7609 250.708 12.08 248.316 10.8963C245.925 9.68892 242.765 9.08523 238.835 9.08523H223.352V74H214.545ZM248.778 41.3295L266.676 74H256.449L238.835 41.3295H248.778ZM298.51 74V1.27273H307.317V37.3523H308.169L340.839 1.27273H352.345L321.805 34.0852L352.345 74H341.692L316.408 40.1932L307.317 50.4205V74H298.51Z" fill="#303030"/>
</svg>
