<svg width="454" height="76" viewBox="0 0 454 76" fill="none" xmlns="http://www.w3.org/2000/svg">
<path d="M43.5795 19.4545C43.1534 15.8561 41.4252 13.0625 38.3949 11.0739C35.3646 9.08523 31.6477 8.09091 27.2443 8.09091C24.0246 8.09091 21.2074 8.61174 18.7926 9.65341C16.4015 10.6951 14.5313 12.1274 13.1818 13.9503C11.8561 15.7732 11.1932 17.8447 11.1932 20.1648C11.1932 22.1061 11.6548 23.7751 12.5781 25.1719C13.5251 26.545 14.7325 27.6932 16.2003 28.6165C17.6681 29.5161 19.2069 30.2618 20.8168 30.8537C22.4266 31.4219 23.9062 31.8835 25.2557 32.2386L32.642 34.2273C34.536 34.7244 36.643 35.411 38.9631 36.2869C41.3068 37.1629 43.544 38.3584 45.6747 39.8736C47.8291 41.3651 49.6046 43.2827 51.0014 45.6264C52.3982 47.9702 53.0966 50.8466 53.0966 54.2557C53.0966 58.1856 52.0668 61.7367 50.0071 64.9091C47.9711 68.0814 44.9882 70.6027 41.0582 72.473C37.152 74.3433 32.4053 75.2784 26.8182 75.2784C21.6098 75.2784 17.0999 74.438 13.2884 72.7571C9.50047 71.0762 6.51752 68.7325 4.33949 65.7259C2.18513 62.7192 0.965909 59.2273 0.681818 55.25H9.77273C10.0095 57.9962 10.9328 60.2689 12.5426 62.0682C14.1761 63.8437 16.2358 65.1695 18.7216 66.0455C21.2311 66.8977 23.9299 67.3239 26.8182 67.3239C30.1799 67.3239 33.1984 66.7794 35.8736 65.6903C38.5488 64.5777 40.6676 63.0388 42.2301 61.0739C43.7926 59.0852 44.5739 56.7652 44.5739 54.1136C44.5739 51.6989 43.8991 49.7339 42.5497 48.2188C41.2003 46.7036 39.4247 45.4725 37.223 44.5256C35.0213 43.5786 32.642 42.75 30.0852 42.0398L21.1364 39.483C15.4545 37.8494 10.9564 35.5175 7.64205 32.4872C4.32765 29.4569 2.67045 25.4915 2.67045 20.5909C2.67045 16.5189 3.77131 12.9678 5.97301 9.9375C8.19839 6.88352 11.1813 4.5161 14.9219 2.83523C18.6861 1.13068 22.8883 0.278406 27.5284 0.278406C32.2159 0.278406 36.3826 1.11884 40.0284 2.79971C43.6742 4.45691 46.5625 6.72964 48.6932 9.61789C50.8475 12.5062 51.9839 15.785 52.1023 19.4545H43.5795ZM148.94 37.6364C148.94 45.3068 147.555 51.9356 144.785 57.5227C142.015 63.1098 138.216 67.4186 133.386 70.4489C128.556 73.4792 123.04 74.9943 116.838 74.9943C110.635 74.9943 105.119 73.4792 100.289 70.4489C95.4599 67.4186 91.6602 63.1098 88.8903 57.5227C86.1204 51.9356 84.7354 45.3068 84.7354 37.6364C84.7354 29.9659 86.1204 23.3371 88.8903 17.75C91.6602 12.1629 95.4599 7.85417 100.289 4.82386C105.119 1.79356 110.635 0.278406 116.838 0.278406C123.04 0.278406 128.556 1.79356 133.386 4.82386C138.216 7.85417 142.015 12.1629 144.785 17.75C147.555 23.3371 148.94 29.9659 148.94 37.6364ZM140.417 37.6364C140.417 31.339 139.364 26.0241 137.257 21.6918C135.173 17.3594 132.344 14.0805 128.77 11.8551C125.218 9.62973 121.241 8.51704 116.838 8.51704C112.434 8.51704 108.445 9.62973 104.87 11.8551C101.319 14.0805 98.4902 17.3594 96.3832 21.6918C94.2998 26.0241 93.2582 31.339 93.2582 37.6364C93.2582 43.9337 94.2998 49.2486 96.3832 53.581C98.4902 57.9134 101.319 61.1922 104.87 63.4176C108.445 65.643 112.434 66.7557 116.838 66.7557C121.241 66.7557 125.218 65.643 128.77 63.4176C132.344 61.1922 135.173 57.9134 137.257 53.581C139.364 49.2486 140.417 43.9337 140.417 37.6364ZM242.271 24H233.464C232.943 21.4669 232.032 19.2415 230.73 17.3239C229.451 15.4062 227.889 13.7964 226.042 12.4943C224.219 11.1686 222.195 10.1742 219.97 9.51136C217.744 8.84848 215.424 8.51704 213.01 8.51704C208.606 8.51704 204.617 9.62973 201.042 11.8551C197.491 14.0805 194.662 17.3594 192.555 21.6918C190.472 26.0241 189.43 31.339 189.43 37.6364C189.43 43.9337 190.472 49.2486 192.555 53.581C194.662 57.9134 197.491 61.1922 201.042 63.4176C204.617 65.643 208.606 66.7557 213.01 66.7557C215.424 66.7557 217.744 66.4242 219.97 65.7614C222.195 65.0985 224.219 64.116 226.042 62.8139C227.889 61.4882 229.451 59.8665 230.73 57.9489C232.032 56.0076 232.943 53.7822 233.464 51.2727H242.271C241.608 54.9896 240.401 58.3158 238.649 61.2514C236.897 64.187 234.719 66.6847 232.115 68.7443C229.511 70.7803 226.587 72.331 223.343 73.3963C220.124 74.4616 216.679 74.9943 213.01 74.9943C206.807 74.9943 201.291 73.4792 196.461 70.4489C191.632 67.4186 187.832 63.1098 185.062 57.5227C182.292 51.9356 180.907 45.3068 180.907 37.6364C180.907 29.9659 182.292 23.3371 185.062 17.75C187.832 12.1629 191.632 7.85417 196.461 4.82386C201.291 1.79356 206.807 0.278406 213.01 0.278406C216.679 0.278406 220.124 0.811077 223.343 1.87642C226.587 2.94176 229.511 4.50426 232.115 6.56392C234.719 8.5999 236.897 11.0857 238.649 14.0213C240.401 16.9332 241.608 20.2595 242.271 24ZM285.309 1.27273V74H276.502V1.27273H285.309ZM325.95 74H316.717L343.422 1.27273H352.512L379.217 74H369.984L348.251 12.7784H347.683L325.95 74ZM329.359 45.5909H366.575V53.4034H329.359V45.5909ZM410.545 74V1.27273H419.352V66.1875H453.159V74H410.545Z" fill="#303030"/>
</svg>
